#define pena_ico_width 60
#define pena_ico_height 57
static unsigned char pena_ico_bits[] = {
   0x00, 0x00, 0x00, 0x00, 0x00, 0x00, 0x00, 0x04, 0x00, 0x00, 0x00, 0x00,
   0x00, 0x00, 0x80, 0x03, 0x00, 0x00, 0x00, 0x00, 0x00, 0x00, 0xe0, 0x03,
   0x00, 0x00, 0x00, 0x00, 0x00, 0x00, 0xf0, 0x01, 0x00, 0x00, 0x00, 0x00,
   0x00, 0x00, 0xfc, 0x00, 0x00, 0x00, 0x00, 0x00, 0x00, 0x00, 0xfc, 0x00,
   0x00, 0x00, 0x00, 0x00, 0x00, 0xc0, 0x3c, 0x00, 0x00, 0x00, 0x00, 0x00,
   0x00, 0xe0, 0x7e, 0x00, 0x00, 0x00, 0x00, 0x00, 0x00, 0xf0, 0x3e, 0x00,
   0x00, 0x00, 0x00, 0x00, 0x00, 0xf0, 0x0f, 0x00, 0x00, 0x00, 0x00, 0x00,
   0x00, 0xf8, 0x3f, 0x00, 0x00, 0x00, 0x00, 0x00, 0x00, 0x79, 0x3f, 0x00,
   0x00, 0x00, 0x00, 0x00, 0x00, 0xfb, 0x1f, 0x00, 0x00, 0x00, 0x00, 0x00,
   0x80, 0xff, 0x03, 0x00, 0x00, 0x00, 0x00, 0x00, 0xc0, 0x6b, 0x00, 0x00,
   0x00, 0x00, 0x00, 0x00, 0xc0, 0xef, 0x0f, 0x00, 0x00, 0x00, 0x00, 0x00,
   0xe0, 0xf7, 0x0f, 0x00, 0x00, 0x00, 0x00, 0x00, 0xf0, 0xff, 0x07, 0x00,
   0x00, 0x00, 0x00, 0x00, 0xe0, 0xfd, 0x03, 0x00, 0x00, 0x00, 0x00, 0x00,
   0xe0, 0xfe, 0x00, 0x00, 0x00, 0x00, 0x00, 0x00, 0xc8, 0x1d, 0x00, 0x00,
   0x00, 0x00, 0x00, 0x00, 0xd8, 0xfe, 0x00, 0x00, 0x00, 0x00, 0x00, 0x00,
   0xdc, 0xfe, 0x00, 0x00, 0x00, 0x00, 0x00, 0x00, 0x7c, 0xff, 0x00, 0x00,
   0x00, 0x00, 0x00, 0x00, 0xbe, 0x7f, 0x00, 0x00, 0x00, 0x00, 0x00, 0x00,
   0xfe, 0x3f, 0x00, 0x00, 0x00, 0x00, 0x00, 0x00, 0xfe, 0x0a, 0x00, 0x00,
   0x00, 0x00, 0x00, 0x00, 0xff, 0x00, 0x00, 0x00, 0x00, 0x00, 0x00, 0x80,
   0xff, 0x02, 0x00, 0x00, 0x00, 0x00, 0x00, 0x10, 0xff, 0x07, 0x00, 0x00,
   0x00, 0x00, 0x00, 0x80, 0xff, 0x03, 0x00, 0x00, 0x00, 0x00, 0x00, 0x08,
   0xff, 0x01, 0x00, 0x00, 0x00, 0x00, 0x00, 0x00, 0x7b, 0x02, 0x00, 0x00,
   0x00, 0x00, 0x00, 0x43, 0x1f, 0x08, 0x00, 0x00, 0x00, 0x00, 0x00, 0x00,
   0x04, 0x80, 0x00, 0x00, 0x00, 0x00, 0x40, 0x00, 0x16, 0x80, 0x04, 0x00,
   0x00, 0x00, 0x00, 0xe0, 0x05, 0x00, 0x20, 0x00, 0x00, 0x00, 0x08, 0x20,
   0x05, 0x00, 0x24, 0x00, 0x00, 0x00, 0x02, 0xa4, 0x0a, 0x00, 0x58, 0x00,
   0x00, 0x40, 0x02, 0x44, 0x05, 0x00, 0x96, 0x00, 0x20, 0x10, 0x11, 0xb0,
   0x25, 0x80, 0x54, 0x01, 0x44, 0x44, 0x04, 0x60, 0x5d, 0x80, 0x29, 0x01,
   0x02, 0x9a, 0x10, 0xa8, 0xa0, 0x00, 0xa4, 0x00, 0x02, 0x50, 0x15, 0x98,
   0x6f, 0x50, 0x28, 0x00, 0x0c, 0x80, 0x42, 0x68, 0x9b, 0x28, 0x4a, 0x00,
   0x49, 0x00, 0x5a, 0xd0, 0xba, 0x08, 0x10, 0x00, 0x12, 0x09, 0x20, 0x6c,
   0x2b, 0x08, 0x00, 0x00, 0xa4, 0x24, 0x88, 0xb0, 0x2a, 0x00, 0x00, 0x00,
   0x10, 0x12, 0x71, 0xdd, 0x15, 0x01, 0x00, 0x00, 0x80, 0xa2, 0x0a, 0x21,
   0x16, 0x00, 0x00, 0x00, 0x00, 0x94, 0xd2, 0xa5, 0x49, 0x00, 0x00, 0x00,
   0x00, 0x50, 0x54, 0x45, 0x16, 0x00, 0x00, 0x00, 0x00, 0x40, 0x45, 0xb1,
   0x09, 0x00, 0x00, 0x00, 0x00, 0x00, 0x0a, 0x40, 0x0a, 0x00, 0x00, 0x00,
   0x00, 0x00, 0x10, 0x00, 0x01, 0x00, 0x00, 0x00, 0x00, 0x00, 0x40, 0x40,
   0x02, 0x00, 0x00, 0x00, 0x00, 0x00, 0x00, 0x2a, 0x00, 0x00, 0x00, 0x00 };
